<svg width="14" height="14" viewBox="0 0 14 14" fill="none" xmlns="http://www.w3.org/2000/svg">
<g id="chat_ico_tips_fire">
<path id="Vector" d="M7.06002 10.3267C8.46542 10.3267 9.62 9.21297 9.62 7.78344C9.62 7.43249 9.60217 7.05629 9.40764 6.4716C9.21311 5.88693 9.17393 5.81146 8.96824 5.45037C8.88036 6.18723 8.41017 6.49433 8.29072 6.58612C8.29072 6.49063 8.00628 5.43467 7.57502 4.80286C7.15167 4.18267 6.5759 3.77579 6.2383 3.5C6.2383 4.02391 6.09095 4.80286 5.87992 5.19975C5.66889 5.59664 5.62926 5.61109 5.36566 5.90645C5.10208 6.20181 4.9811 6.29303 4.76068 6.6514C4.54027 7.00978 4.5 7.48711 4.5 7.83805C4.5 9.26758 5.65462 10.3267 7.06002 10.3267Z" stroke="#999999" stroke-width="0.8" stroke-linejoin="round"/>
</g>
</svg>
