<svg width="12" height="12" viewBox="0 0 12 12" fill="none" xmlns="http://www.w3.org/2000/svg">
<g id="chat_ico_remind_not">
<path id="Vector" d="M10.5 9.5C10.5 9.5 9 8.25 9 4.75C9 3.09315 7.65685 1.75 6 1.75C5.365 1.75 4.77605 1.94729 4.29117 2.28393M7.5 9.5H1.5C1.5 9.5 2.8923 8.33975 2.99412 5.125" stroke="currentColor" stroke-linecap="round"/>
<path id="Vector_2" d="M4.5 9.5H7.5C7.5 10.3284 6.82842 11 6 11C5.17158 11 4.5 10.3284 4.5 9.5Z" stroke="currentColor"/>
<path id="Vector_3" fill-rule="evenodd" clip-rule="evenodd" d="M6 0.5C5.44772 0.5 5 0.947715 5 1.5H7C7 0.947715 6.55227 0.5 6 0.5Z" fill="#898989"/>
<path id="Vector_4" d="M1.75 1.625L10.25 11.125" stroke="currentColor" stroke-linecap="round"/>
</g>
</svg>
