<svg width="16" height="16" viewBox="0 0 16 16" fill="none" xmlns="http://www.w3.org/2000/svg">
<g id="chat_ico_inform" clip-path="url(#clip0_252_10934)">
<path id="Vector" d="M7.99967 14.6673C11.6816 14.6673 14.6663 11.6826 14.6663 8.00065C14.6663 4.31875 11.6816 1.33398 7.99967 1.33398C4.31777 1.33398 1.33301 4.31875 1.33301 8.00065C1.33301 8.90455 1.5129 9.76645 1.83883 10.5525C2.00711 10.9583 2.21433 11.3439 2.45582 11.7046C2.53686 11.8257 2.38482 12.591 1.99967 14.0007C3.40931 13.6155 4.17464 13.4635 4.29571 13.5445C4.65644 13.786 5.04204 13.9932 5.44787 14.1615C6.23387 14.4874 7.09577 14.6673 7.99967 14.6673Z" stroke="#0C8CE9" stroke-width="1.5" stroke-linejoin="round"/>
<path id="Vector_2" d="M5.53516 6.60742H11.1283" stroke="#0C8CE9" stroke-width="1.5" stroke-linecap="round" stroke-linejoin="round"/>
<path id="Vector_3" d="M7.28178 5.24609L6.31055 10.7542" stroke="#0C8CE9" stroke-width="1.5" stroke-linecap="round" stroke-linejoin="round"/>
<path id="Vector_4" d="M9.61576 5.24609L8.64453 10.7542" stroke="#0C8CE9" stroke-width="1.5" stroke-linecap="round" stroke-linejoin="round"/>
<path id="Vector_5" d="M4.86816 9.33398H10.4613" stroke="#0C8CE9" stroke-width="1.5" stroke-linecap="round" stroke-linejoin="round"/>
</g>
<defs>
<clipPath id="clip0_252_10934">
<rect width="16" height="16" fill="white"/>
</clipPath>
</defs>
</svg>
