<svg width="24" height="24" viewBox="0 0 24 24" fill="none" xmlns="http://www.w3.org/2000/svg">
<g id="common_ico_closeeye">
<path id="Vector" d="M6.10728 9.5C4.59925 10.75 3.6665 12 3.6665 12C3.6665 12 7.39746 17 11.9998 17C12.5706 17 13.128 16.9231 13.6665 16.7884M10.3464 7.20833C10.8808 7.07567 11.4338 7 11.9998 7C16.6022 7 20.3332 12 20.3332 12C20.3332 12 19.4004 13.25 17.8924 14.5" stroke="#999999" stroke-width="1.5" stroke-linecap="round" stroke-linejoin="round"/>
<path id="Vector_2" d="M10.4641 10.5918C10.124 10.9625 9.9165 11.4568 9.9165 11.9996C9.9165 13.1502 10.8493 14.0829 11.9998 14.0829C12.5676 14.0829 13.0824 13.8558 13.4582 13.4874" stroke="#999999" stroke-width="1.5" stroke-linecap="round" stroke-linejoin="round"/>
<path id="Vector_3" d="M19.5 19.5L4.5 4.5" stroke="#999999" stroke-width="1.5" stroke-linecap="round" stroke-linejoin="round"/>
</g>
</svg>
