<svg width="24" height="24" viewBox="0 0 24 24" fill="none" xmlns="http://www.w3.org/2000/svg">
<g id="nvbar_ico_theme_light">
<g id="Frame" clip-path="url(#clip0_67_6371)">
<path id="Vector" d="M12.0003 17.9587C15.291 17.9587 17.9587 15.291 17.9587 12.0003C17.9587 8.70963 15.291 6.04199 12.0003 6.04199C8.70963 6.04199 6.04199 8.70963 6.04199 12.0003C6.04199 15.291 8.70963 17.9587 12.0003 17.9587Z" stroke="#333333" stroke-width="1.5" stroke-linejoin="round"/>
<path id="Vector_2" d="M12.0003 3.74967C12.6331 3.74967 13.1462 3.23667 13.1462 2.60384C13.1462 1.97102 12.6331 1.45801 12.0003 1.45801C11.3675 1.45801 10.8545 1.97102 10.8545 2.60384C10.8545 3.23667 11.3675 3.74967 12.0003 3.74967Z" fill="#333333"/>
<path id="Vector_3" d="M18.6458 6.49967C19.2787 6.49967 19.7917 5.98666 19.7917 5.35384C19.7917 4.72102 19.2787 4.20801 18.6458 4.20801C18.013 4.20801 17.5 4.72102 17.5 5.35384C17.5 5.98666 18.013 6.49967 18.6458 6.49967Z" fill="#333333"/>
<path id="Vector_4" d="M21.3958 13.1462C22.0287 13.1462 22.5417 12.6331 22.5417 12.0003C22.5417 11.3675 22.0287 10.8545 21.3958 10.8545C20.763 10.8545 20.25 11.3675 20.25 12.0003C20.25 12.6331 20.763 13.1462 21.3958 13.1462Z" fill="#333333"/>
<path id="Vector_5" d="M18.6458 19.7917C19.2787 19.7917 19.7917 19.2787 19.7917 18.6458C19.7917 18.013 19.2787 17.5 18.6458 17.5C18.013 17.5 17.5 18.013 17.5 18.6458C17.5 19.2787 18.013 19.7917 18.6458 19.7917Z" fill="#333333"/>
<path id="Vector_6" d="M12.0003 22.5417C12.6331 22.5417 13.1462 22.0287 13.1462 21.3958C13.1462 20.763 12.6331 20.25 12.0003 20.25C11.3675 20.25 10.8545 20.763 10.8545 21.3958C10.8545 22.0287 11.3675 22.5417 12.0003 22.5417Z" fill="#333333"/>
<path id="Vector_7" d="M5.35384 19.7917C5.98666 19.7917 6.49967 19.2787 6.49967 18.6458C6.49967 18.013 5.98666 17.5 5.35384 17.5C4.72102 17.5 4.20801 18.013 4.20801 18.6458C4.20801 19.2787 4.72102 19.7917 5.35384 19.7917Z" fill="#333333"/>
<path id="Vector_8" d="M2.60384 13.1462C3.23667 13.1462 3.74967 12.6331 3.74967 12.0003C3.74967 11.3675 3.23667 10.8545 2.60384 10.8545C1.97102 10.8545 1.45801 11.3675 1.45801 12.0003C1.45801 12.6331 1.97102 13.1462 2.60384 13.1462Z" fill="#333333"/>
<path id="Vector_9" d="M5.35384 6.49967C5.98666 6.49967 6.49967 5.98666 6.49967 5.35384C6.49967 4.72102 5.98666 4.20801 5.35384 4.20801C4.72102 4.20801 4.20801 4.72102 4.20801 5.35384C4.20801 5.98666 4.72102 6.49967 5.35384 6.49967Z" fill="#333333"/>
</g>
</g>
<defs>
<clipPath id="clip0_67_6371">
<rect width="22" height="22" fill="white" transform="translate(1 1)"/>
</clipPath>
</defs>
</svg>
