<svg width="18" height="18" viewBox="0 0 18 18" fill="none" xmlns="http://www.w3.org/2000/svg">
<g id="info_ico_mute_nor">
<path id="Vector" d="M15.75 14.25C15.75 14.25 13.5 12.375 13.5 7.125C13.5 4.63973 11.4853 2.625 9 2.625C8.0475 2.625 7.16407 2.92094 6.43676 3.42589M11.25 14.25H2.25C2.25 14.25 4.33845 12.5096 4.49119 7.6875" stroke="currentColor" stroke-width="1.5" stroke-linecap="round" stroke-linejoin="round"/>
<path id="Vector_2" d="M6.75 14.25H11.25C11.25 15.4926 10.2426 16.5 9 16.5C7.75736 16.5 6.75 15.4926 6.75 14.25Z" stroke="currentColor" stroke-width="1.5"/>
<path id="Vector_3" fill-rule="evenodd" clip-rule="evenodd" d="M9 0.75C8.17159 0.75 7.5 1.42157 7.5 2.25H10.5C10.5 1.42157 9.82841 0.75 9 0.75Z" fill="#333333"/>
<path id="Vector_4" d="M2.625 2.4375L15.375 16.6875" stroke="currentColor" stroke-width="1.5" stroke-linecap="round" stroke-linejoin="round"/>
</g>
</svg>
