<?xml version="1.0" standalone="no"?><!DOCTYPE svg PUBLIC "-//W3C//DTD SVG 1.1//EN" "http://www.w3.org/Graphics/SVG/1.1/DTD/svg11.dtd"><svg t="1722437021686" stroke="currentColor" stroke-width="1.5" width="24" height="24" viewBox="0 0 24 24" fill="currentColor" version="1.1" xmlns="http://www.w3.org/2000/svg" p-id="10210" xmlns:xlink="http://www.w3.org/1999/xlink" width="200" height="200"><path d="M111.567189 74.463422a37.167739 37.167739 0 0 0-37.167739 37.167739v800.289874a37.167739 37.167739 0 0 0 37.167739 37.167739h800.289874a37.167739 37.167739 0 0 0 37.167739-37.167739V111.631161a37.231711 37.231711 0 0 0-37.167739-37.167739z m0-74.463422h800.289874A111.695133 111.695133 0 0 1 1023.552196 111.631161v800.289874a111.631161 111.631161 0 0 1-111.631161 111.631161H111.567189A111.631161 111.631161 0 0 1 0 911.921035V111.631161A111.631161 111.631161 0 0 1 111.567189 0z" p-id="10211"></path><path d="M232.922097 289.537327h141.506091V223.582183h76.702442v65.955144h141.378147v61.157244H232.922097v-61.157244zM717.318173 800.033985h-393.427875V626.60586h76.638471v109.264197h316.789404v64.163928zM790.630099 489.066034h-89.688761v168.886112H625.198476V231.7706h75.742862v193.195477h89.688761v64.099957zM525.018304 408.781158c-27.635909-20.854876-64.419816-31.282314-110.799525-31.282314s-83.163616 10.555382-110.543637 31.47423S262.28525 456.504279 262.28525 488.490286s13.817955 59.174111 41.453864 80.156931 63.972012 31.282314 109.712001 31.282314q69.793465 0 111.247329-31.47423t41.517836-79.965015a95.958018 95.958018 0 0 0-41.197976-79.709128z m-53.992378 115.72537c-12.794402 8.89211-31.986006 13.242207-56.807147 13.242207s-43.181108-4.478041-55.97551-13.434123a41.773724 41.773724 0 0 1-19.191604-35.888299 40.174424 40.174424 0 0 1 19.639408-35.120634c12.794402-8.700194 31.602174-12.794402 55.463734-12.794403s43.181108 4.286125 56.295371 12.794403a39.918536 39.918536 0 0 1 19.831324 35.312551 41.581808 41.581808 0 0 1-19.255576 35.888298z" p-id="10212"></path></svg>