<svg width="24" height="24" viewBox="0 0 24 24" fill="none" xmlns="http://www.w3.org/2000/svg">
<g id="language_icn_kr_nor">
<path id="Vector" d="M19.5 3H4.5C3.67157 3 3 3.67157 3 4.5V19.5C3 20.3284 3.67157 21 4.5 21H19.5C20.3284 21 21 20.3284 21 19.5V4.5C21 3.67157 20.3284 3 19.5 3Z" stroke="#333333" stroke-width="1.5" stroke-linecap="round" stroke-linejoin="round"/>
<path id="Vector_2" d="M7 9.31297V8.19576H9.53654V7H10.9123V8.20449H13.4488V9.3217H7V9.31297ZM10.2416 13.8516C9.42476 13.8516 8.77128 13.6596 8.27257 13.2843C7.77386 12.9002 7.52451 12.4202 7.52451 11.8267C7.52451 11.2419 7.77386 10.7618 8.26397 10.3778C8.75408 9.99377 9.41617 9.80175 10.2502 9.80175C11.0843 9.80175 11.7377 9.99377 12.2365 10.3691C12.7352 10.7531 12.9759 11.2332 12.9759 11.818C12.9759 12.4027 12.7266 12.8915 12.2279 13.2756C11.7377 13.6596 11.0757 13.8516 10.2416 13.8516ZM8.63371 17.5V14.3404H10.0095V16.3304H15.693V17.5H8.63371ZM10.2502 10.9451C9.82029 10.9451 9.48495 11.0237 9.25279 11.1808C9.02064 11.3379 8.90026 11.5474 8.90026 11.818C8.90026 12.0885 9.01204 12.3067 9.2442 12.4726C9.47635 12.6384 9.81169 12.717 10.2502 12.717C10.6973 12.717 11.0413 12.6384 11.2648 12.4726C11.497 12.3155 11.6088 12.0973 11.6088 11.818C11.6088 11.5474 11.4884 11.3292 11.2562 11.1721C11.0241 11.0237 10.6887 10.9451 10.2502 10.9451ZM15.3921 11.8354V14.9077H14.0335V7.14838H15.3921V10.6658H17V11.8354H15.3921Z" fill="#333333"/>
</g>
</svg>
