<svg width="20" height="20" viewBox="0 0 20 20" fill="none" xmlns="http://www.w3.org/2000/svg">
<g id="me_ico_setting">
<path id="Vector" d="M4.58301 6.66699V17.5003" stroke="currentColor" stroke-width="1.5" stroke-linecap="round" stroke-linejoin="round"/>
<path id="Vector_2" d="M10 12.083V17.4997" stroke="currentColor" stroke-width="1.5" stroke-linecap="round" stroke-linejoin="round"/>
<path id="Vector_3" d="M10 7.91667V2.5" stroke="currentColor" stroke-width="1.5" stroke-linecap="round" stroke-linejoin="round"/>
<path id="Vector_4" d="M15.417 2.5V13.3333" stroke="currentColor" stroke-width="1.5" stroke-linecap="round" stroke-linejoin="round"/>
<path id="Vector_5" d="M4.58333 6.66667C5.73392 6.66667 6.66667 5.73392 6.66667 4.58333C6.66667 3.43274 5.73392 2.5 4.58333 2.5C3.43274 2.5 2.5 3.43274 2.5 4.58333C2.5 5.73392 3.43274 6.66667 4.58333 6.66667Z" stroke="currentColor" stroke-width="1.5" stroke-linejoin="round"/>
<path id="Vector_6" d="M10.0003 12.0837C11.1509 12.0837 12.0837 11.1509 12.0837 10.0003C12.0837 8.84974 11.1509 7.91699 10.0003 7.91699C8.84974 7.91699 7.91699 8.84974 7.91699 10.0003C7.91699 11.1509 8.84974 12.0837 10.0003 12.0837Z" stroke="currentColor" stroke-width="1.5" stroke-linejoin="round"/>
<path id="Vector_7" d="M15.4163 17.4997C16.5669 17.4997 17.4997 16.5669 17.4997 15.4163C17.4997 14.2658 16.5669 13.333 15.4163 13.333C14.2658 13.333 13.333 14.2658 13.333 15.4163C13.333 16.5669 14.2658 17.4997 15.4163 17.4997Z" stroke="currentColor" stroke-width="1.5" stroke-linejoin="round"/>
</g>
</svg>
