<svg width="16" height="16" viewBox="0 0 16 16" fill="none" xmlns="http://www.w3.org/2000/svg">
<g id="me_ico_identity" clip-path="url(#clip0_67_6358)">
<path id="Vector" d="M6 7.97874V3.33301C6 2.22844 6.89543 1.33301 8 1.33301C9.10457 1.33301 10 2.22844 10 3.33301V4.00157" stroke="#333333" stroke-width="1.25" stroke-linecap="round"/>
<path id="Vector_2" d="M10 8.00098V12.6665C10 13.771 9.10457 14.6665 8 14.6665C6.89543 14.6665 6 13.771 6 12.6665V11.9898" stroke="#333333" stroke-width="1.25" stroke-linecap="round"/>
<path id="Vector_3" d="M7.99967 10H3.32772C2.22607 10 1.33301 9.10457 1.33301 8C1.33301 6.89543 2.22607 6 3.32772 6H3.99587" stroke="#333333" stroke-width="1.25" stroke-linecap="round"/>
<path id="Vector_4" d="M8 6H12.6629C13.7696 6 14.6667 6.89543 14.6667 8C14.6667 9.10457 13.7696 10 12.6629 10H12.0221" stroke="#333333" stroke-width="1.25" stroke-linecap="round"/>
</g>
<defs>
<clipPath id="clip0_67_6358">
<rect width="16" height="16" fill="white"/>
</clipPath>
</defs>
</svg>
