<svg width="24" height="24" viewBox="0 0 24 24" fill="none" xmlns="http://www.w3.org/2000/svg">
<g id="nvbar_ico_fire_phone">
<path id="Vector" d="M9.0819 5.20312C9.38465 5.20312 9.66357 5.3673 9.81053 5.63198L10.8299 7.46815C10.9633 7.70857 10.9696 7.99936 10.8466 8.24532L9.86461 10.2094C9.86461 10.2094 10.1492 11.6724 11.3402 12.8634C12.5312 14.0544 13.9894 14.3341 13.9894 14.3341L15.9531 13.3523C16.1992 13.2292 16.4902 13.2356 16.7307 13.3693L18.5721 14.393C18.8365 14.5401 19.0005 14.8188 19.0005 15.1214V17.2353C19.0005 18.3119 18.0006 19.0894 16.9805 18.7452C14.8856 18.0383 11.6336 16.6924 9.57245 14.6312C7.51124 12.57 6.16532 9.31807 5.45843 7.22311C5.11426 6.20307 5.8918 5.20312 6.96832 5.20312H9.0819Z" stroke="currentColor" stroke-width="1.5" stroke-linejoin="round"/>
</g>
</svg>
