<svg width="24" height="24" viewBox="0 0 24 24" fill="none" xmlns="http://www.w3.org/2000/svg">
<g id="nvbar_ico_theme_light_act">
<g id="Frame" clip-path="url(#clip0_112_3507)">
<path id="Vector" d="M11.9998 17.9577C15.2905 17.9577 17.9582 15.29 17.9582 11.9993C17.9582 8.70865 15.2905 6.04102 11.9998 6.04102C8.70914 6.04102 6.0415 8.70865 6.0415 11.9993C6.0415 15.29 8.70914 17.9577 11.9998 17.9577Z" stroke="currentColor" stroke-width="1.5" stroke-linejoin="round"/>
<path id="Vector_2" d="M11.9998 3.75065C12.6327 3.75065 13.1457 3.23764 13.1457 2.60482C13.1457 1.97199 12.6327 1.45898 11.9998 1.45898C11.367 1.45898 10.854 1.97199 10.854 2.60482C10.854 3.23764 11.367 3.75065 11.9998 3.75065Z" fill="currentColor"/>
<path id="Vector_3" d="M18.6458 6.50065C19.2787 6.50065 19.7917 5.98764 19.7917 5.35482C19.7917 4.72199 19.2787 4.20898 18.6458 4.20898C18.013 4.20898 17.5 4.72199 17.5 5.35482C17.5 5.98764 18.013 6.50065 18.6458 6.50065Z" fill="currentColor"/>
<path id="Vector_4" d="M21.3958 13.1452C22.0287 13.1452 22.5417 12.6322 22.5417 11.9993C22.5417 11.3665 22.0287 10.8535 21.3958 10.8535C20.763 10.8535 20.25 11.3665 20.25 11.9993C20.25 12.6322 20.763 13.1452 21.3958 13.1452Z" fill="currentColor"/>
<path id="Vector_5" d="M18.6458 19.7917C19.2787 19.7917 19.7917 19.2787 19.7917 18.6458C19.7917 18.013 19.2787 17.5 18.6458 17.5C18.013 17.5 17.5 18.013 17.5 18.6458C17.5 19.2787 18.013 19.7917 18.6458 19.7917Z" fill="currentColor"/>
<path id="Vector_6" d="M11.9998 22.5417C12.6327 22.5417 13.1457 22.0287 13.1457 21.3958C13.1457 20.763 12.6327 20.25 11.9998 20.25C11.367 20.25 10.854 20.763 10.854 21.3958C10.854 22.0287 11.367 22.5417 11.9998 22.5417Z" fill="currentColor"/>
<path id="Vector_7" d="M5.35433 19.7917C5.98715 19.7917 6.50016 19.2787 6.50016 18.6458C6.50016 18.013 5.98715 17.5 5.35433 17.5C4.7215 17.5 4.2085 18.013 4.2085 18.6458C4.2085 19.2787 4.7215 19.7917 5.35433 19.7917Z" fill="currentColor"/>
<path id="Vector_8" d="M2.60433 13.1452C3.23715 13.1452 3.75016 12.6322 3.75016 11.9993C3.75016 11.3665 3.23715 10.8535 2.60433 10.8535C1.9715 10.8535 1.4585 11.3665 1.4585 11.9993C1.4585 12.6322 1.9715 13.1452 2.60433 13.1452Z" fill="currentColor"/>
<path id="Vector_9" d="M5.35433 6.50065C5.98715 6.50065 6.50016 5.98764 6.50016 5.35482C6.50016 4.72199 5.98715 4.20898 5.35433 4.20898C4.7215 4.20898 4.2085 4.72199 4.2085 5.35482C4.2085 5.98764 4.7215 6.50065 5.35433 6.50065Z" fill="currentColor"/>
</g>
</g>
<defs>
<clipPath id="clip0_112_3507">
<rect width="22" height="22" fill="white" transform="translate(1 1)"/>
</clipPath>
</defs>
</svg>
