<svg width="24" height="24" viewBox="0 0 24 24" fill="none" xmlns="http://www.w3.org/2000/svg">
<g id="nvbar_ico_fire_act">
<path id="Vector" d="M12 20.3327C15.4311 20.3327 18.2499 17.6136 18.2499 14.1236C18.2499 13.2668 18.2064 12.3483 17.7315 10.9208C17.2565 9.49343 17.1609 9.30918 16.6587 8.42764C16.4442 10.2266 15.2962 10.9763 15.0046 11.2004C15.0046 10.9673 14.3102 8.38931 13.2573 6.84681C12.2237 5.33268 10.8181 4.33932 9.99388 3.66602C9.99388 4.94509 9.63412 6.84681 9.11892 7.81577C8.60371 8.78472 8.50696 8.82002 7.86342 9.5411C7.21992 10.2622 6.92454 10.4849 6.38642 11.3598C5.84832 12.2348 5.75 13.4001 5.75 14.2569C5.75 17.7469 8.56887 20.3327 12 20.3327Z" fill="#DE473E" stroke="#DE473E" stroke-width="1.5" stroke-linejoin="round"/>
</g>
</svg>
