<svg width="36" height="36" viewBox="0 0 36 36" fill="none" xmlns="http://www.w3.org/2000/svg">
<g id="videocall_ico_start">
<path id="Vector" d="M12.7471 5.76367C13.292 5.76367 13.7941 6.05919 14.0586 6.53562L15.8934 9.84072C16.1336 10.2735 16.145 10.7969 15.9236 11.2396L14.156 14.7749C14.156 14.7749 14.6682 17.4084 16.812 19.5522C18.9558 21.696 21.5806 22.1995 21.5806 22.1995L25.1153 20.4321C25.5583 20.2106 26.0821 20.2221 26.515 20.4627L29.8295 22.3055C30.3054 22.5702 30.6006 23.0719 30.6006 23.6165V27.4216C30.6006 29.3594 28.8007 30.759 26.9646 30.1394C23.1937 28.867 17.3402 26.4444 13.6301 22.7342C9.91989 19.0241 7.49724 13.1706 6.22484 9.39965C5.60532 7.56357 7.00489 5.76367 8.94263 5.76367H12.7471Z" fill="white"/>
</g>
</svg>
