<svg width="24" height="24" viewBox="0 0 24 24" fill="none" xmlns="http://www.w3.org/2000/svg">
<g id="videocall_ico_end">
<path id="Vector" d="M20.2442 15.2911C19.9873 15.548 19.6113 15.6453 19.262 15.5454L16.839 14.8523C16.5218 14.7616 16.2697 14.5202 16.1654 14.2071L15.3321 11.7073C15.3321 11.7073 13.8492 10.7073 11.828 10.7073C9.80676 10.7073 8.33213 11.7073 8.33213 11.7073L7.49898 14.2067C7.39458 14.52 7.14225 14.7615 6.82472 14.8521L4.39358 15.5459C4.04445 15.6455 3.66876 15.5481 3.41205 15.2914L1.61829 13.4976C0.704815 12.5842 0.893542 11.0759 2.05115 10.5024C4.42858 9.32462 8.33001 7.70729 11.828 7.70732C15.3259 7.70729 19.2273 9.32462 21.6048 10.5024C22.7624 11.0759 22.9511 12.5842 22.0376 13.4976L20.2442 15.2911Z" fill="white"/>
</g>
</svg>
